<svg class="icon" viewBox="0 0 1024 1024" xmlns="http://www.w3.org/2000/svg" width="200" height="200"><defs><style/></defs><path d="M811.707 1024H212.293C94.907 1024 0 929.093 0 811.707V212.293C0 94.907 94.907 0 212.293 0h599.414C929.093 0 1024 94.907 1024 212.293v599.414C1024 929.093 929.093 1024 811.707 1024zM212.293 24.976c-102.4 0-187.317 84.917-187.317 187.317v599.414c0 102.4 84.917 187.317 187.317 187.317h599.414c102.4 0 187.317-84.917 187.317-187.317V212.293c0-102.4-84.917-187.317-187.317-187.317H212.293z" fill="#0304fc"/><path d="M152.351 949.073l34.966-54.946V89.912h174.83V429.58h337.17V89.912h174.83v859.161h-174.83V574.44h-337.17v374.634H224.78z" fill="#0304fc"/></svg>