<?xml version="1.0" encoding="UTF-8"?>
<svg width="421px" height="208px" viewBox="0 0 421 208" version="1.1" xmlns="http://www.w3.org/2000/svg" xmlns:xlink="http://www.w3.org/1999/xlink">
    <!-- Generator: Sketch 51.2 (57519) - http://www.bohemiancoding.com/sketch -->
    <title>object update property</title>
    <desc>Created with Sketch.</desc>
    <defs></defs>
    <g id="object-update-property" stroke="none" stroke-width="1" fill="none" fill-rule="evenodd">
        <rect fill="#FFFFFF" x="0" y="0" width="421" height="208"></rect>
        <text id="spaceship[‘Fuel-Type" font-family="Courier" font-size="15" font-weight="normal" line-spacing="38">
            <tspan x="26" y="103" fill="#BD10E0">spaceship</tspan>
            <tspan x="107.013184" y="103" fill="#9B9B9B">[</tspan>
            <tspan x="116.014648" y="103" fill="#F5A623">‘Fuel Type’</tspan>
            <tspan x="215.030762" y="103" fill="#9B9B9B">] = ‘vegetable oil’;</tspan>
            <tspan x="26" y="141" fill="#BD10E0">spaceship</tspan>
            <tspan x="107.013184" y="141" fill="#9B9B9B">.</tspan>
            <tspan x="116.014648" y="141" fill="#F5A623">color</tspan>
            <tspan x="161.021973" y="141" fill="#9B9B9B"> = ‘gold’;</tspan>
            <tspan x="251.036621" y="141" fill="#4A90E2"></tspan>
        </text>
        <path d="M138.720215,51 L138.720215,43.1098633 L141.341309,43.1098633 C141.960778,43.1098633 142.49072,43.1895337 142.931152,43.348877 C143.371584,43.5082202 143.719807,43.7669253 143.97583,44.125 C144.231853,44.4830747 144.359863,44.9324517 144.359863,45.4731445 C144.359863,45.849123 144.311524,46.1830226 144.214844,46.4748535 C144.118164,46.7666844 143.958823,47.0316557 143.736816,47.2697754 C143.51481,47.5078951 143.202395,47.6914056 142.799561,47.8203125 C142.396727,47.9492194 141.910647,48.0136719 141.341309,48.0136719 C140.854327,48.0136719 140.45866,47.9993491 140.154297,47.9707031 L140.154297,51 L138.720215,51 Z M141.185547,46.9609375 C141.482749,46.9609375 141.741454,46.932292 141.96167,46.875 C142.181886,46.817708 142.353759,46.7443038 142.477295,46.6547852 C142.600831,46.5652665 142.6993,46.454265 142.772705,46.3217773 C142.84611,46.1892897 142.89445,46.0612799 142.917725,45.9377441 C142.940999,45.8142084 142.952637,45.6754565 142.952637,45.5214844 C142.952637,45.088214 142.81299,44.7587902 142.533691,44.5332031 C142.254393,44.3076161 141.860517,44.1948242 141.352051,44.1948242 L140.154297,44.1948242 L140.154297,46.9501953 C140.197266,46.9573568 140.541012,46.9609375 141.185547,46.9609375 Z M145.407227,51 L145.407227,43.1098633 L148.32373,43.1098633 C148.721193,43.1098633 149.065835,43.1277667 149.357666,43.1635742 C149.649497,43.1993817 149.927001,43.2647293 150.190186,43.3596191 C150.45337,43.4545089 150.666422,43.5825187 150.829346,43.7436523 C150.99227,43.904786 151.121175,44.1151517 151.216064,44.3747559 C151.310954,44.63436 151.358398,44.9414045 151.358398,45.2958984 C151.358398,46.3414766 150.883957,47.0289697 149.935059,47.3583984 C150.128419,47.576824 150.368325,47.9814424 150.654785,48.5722656 L151.825684,51 L150.23584,51 L149.317383,48.9428711 C148.97005,48.2052372 148.755209,47.7683926 148.672852,47.6323242 C148.611979,47.6287435 148.40967,47.6269531 148.065918,47.6269531 L146.84668,47.6162109 L146.84668,51 L145.407227,51 Z M148.452637,46.5742188 C149.011233,46.5742188 149.412271,46.4748545 149.655762,46.276123 C149.899253,46.0773916 150.020996,45.7578147 150.020996,45.3173828 C150.020996,44.9306621 149.897462,44.645997 149.650391,44.4633789 C149.403319,44.2807608 149.025556,44.1894531 148.51709,44.1894531 L146.84668,44.1894531 L146.84668,46.5688477 C146.900391,46.5688477 147.167153,46.5697428 147.646973,46.5715332 C148.126793,46.5733236 148.395345,46.5742188 148.452637,46.5742188 Z M156.434082,49.9257812 C157.196781,49.9257812 157.772378,49.6778182 158.160889,49.1818848 C158.5494,48.6859513 158.743652,47.9850306 158.743652,47.0791016 C158.743652,46.1624303 158.5494,45.4516627 158.160889,44.9467773 C157.772378,44.441892 157.198572,44.1894531 156.439453,44.1894531 C155.676754,44.1894531 155.099367,44.4427872 154.707275,44.9494629 C154.315184,45.4561386 154.119141,46.1660111 154.119141,47.0791016 C154.119141,47.9814498 154.314288,48.6814754 154.70459,49.1791992 C155.094891,49.6769231 155.671383,49.9257812 156.434082,49.9257812 Z M156.428711,51.112793 C155.243484,51.112793 154.308028,50.7538285 153.622314,50.0358887 C152.936601,49.3179489 152.59375,48.326992 152.59375,47.0629883 C152.59375,45.7918231 152.937497,44.799971 153.625,44.0874023 C154.312503,43.3748337 155.248855,43.0185547 156.434082,43.0185547 C157.619309,43.0185547 158.55387,43.3757289 159.237793,44.0900879 C159.921716,44.8044469 160.263672,45.7971942 160.263672,47.0683594 C160.263672,48.3252016 159.919925,49.313473 159.232422,50.0332031 C158.544918,50.7529333 157.610357,51.112793 156.428711,51.112793 Z M161.606445,51 L161.606445,43.1098633 L164.227539,43.1098633 C164.847008,43.1098633 165.376951,43.1895337 165.817383,43.348877 C166.257815,43.5082202 166.606037,43.7669253 166.862061,44.125 C167.118084,44.4830747 167.246094,44.9324517 167.246094,45.4731445 C167.246094,45.849123 167.197754,46.1830226 167.101074,46.4748535 C167.004394,46.7666844 166.845053,47.0316557 166.623047,47.2697754 C166.401041,47.5078951 166.088625,47.6914056 165.685791,47.8203125 C165.282957,47.9492194 164.796878,48.0136719 164.227539,48.0136719 C163.740557,48.0136719 163.344891,47.9993491 163.040527,47.9707031 L163.040527,51 L161.606445,51 Z M164.071777,46.9609375 C164.368979,46.9609375 164.627684,46.932292 164.8479,46.875 C165.068116,46.817708 165.23999,46.7443038 165.363525,46.6547852 C165.487061,46.5652665 165.58553,46.454265 165.658936,46.3217773 C165.732341,46.1892897 165.78068,46.0612799 165.803955,45.9377441 C165.82723,45.8142084 165.838867,45.6754565 165.838867,45.5214844 C165.838867,45.088214 165.69922,44.7587902 165.419922,44.5332031 C165.140624,44.3076161 164.746747,44.1948242 164.238281,44.1948242 L163.040527,44.1948242 L163.040527,46.9501953 C163.083496,46.9573568 163.427243,46.9609375 164.071777,46.9609375 Z M168.331055,51 L168.331055,43.1313477 L173.100586,43.1313477 L173.041504,44.2861328 L169.786621,44.2861328 L169.786621,46.3164062 L172.880371,46.3164062 L172.880371,47.4711914 L169.786621,47.4711914 L169.786621,49.8398438 L173.159668,49.8398438 L173.111328,51 L168.331055,51 Z M174.480957,51 L174.480957,43.1098633 L177.397461,43.1098633 C177.794924,43.1098633 178.139566,43.1277667 178.431396,43.1635742 C178.723227,43.1993817 179.000731,43.2647293 179.263916,43.3596191 C179.527101,43.4545089 179.740152,43.5825187 179.903076,43.7436523 C180.066,43.904786 180.194905,44.1151517 180.289795,44.3747559 C180.384685,44.63436 180.432129,44.9414045 180.432129,45.2958984 C180.432129,46.3414766 179.957687,47.0289697 179.008789,47.3583984 C179.202149,47.576824 179.442056,47.9814424 179.728516,48.5722656 L180.899414,51 L179.30957,51 L178.391113,48.9428711 C178.043781,48.2052372 177.828939,47.7683926 177.746582,47.6323242 C177.685709,47.6287435 177.4834,47.6269531 177.139648,47.6269531 L175.92041,47.6162109 L175.92041,51 L174.480957,51 Z M177.526367,46.5742188 C178.084964,46.5742188 178.486001,46.4748545 178.729492,46.276123 C178.972983,46.0773916 179.094727,45.7578147 179.094727,45.3173828 C179.094727,44.9306621 178.971193,44.645997 178.724121,44.4633789 C178.47705,44.2807608 178.099286,44.1894531 177.59082,44.1894531 L175.92041,44.1894531 L175.92041,46.5688477 C175.974121,46.5688477 176.240883,46.5697428 176.720703,46.5715332 C177.200523,46.5733236 177.469075,46.5742188 177.526367,46.5742188 Z M183.525879,51 L183.525879,44.296875 L181.232422,44.296875 L181.232422,43.1313477 L187.269531,43.1313477 L187.269531,44.296875 L184.986816,44.296875 L184.986816,51 L183.525879,51 Z M189.987305,51 L189.987305,47.8793945 L187.26416,43.1313477 L188.843262,43.1313477 L190.717773,46.5366211 L192.603027,43.1313477 L194.160645,43.1313477 L191.448242,47.8525391 L191.448242,51 L189.987305,51 Z M151.011963,66 L151.011963,58.1313477 L152.558838,58.1313477 C152.838136,58.5681988 153.405676,59.4490494 154.261475,60.7739258 C155.117273,62.0988022 155.638264,62.9044582 155.824463,63.190918 C155.878174,63.2732752 155.970377,63.412027 156.101074,63.6071777 C156.231771,63.8023284 156.323974,63.9410803 156.377686,64.0234375 C156.35262,62.7952413 156.340088,62.1578778 156.340088,62.1113281 L156.340088,58.1313477 L157.666748,58.1313477 L157.666748,66 L156.098389,66 L152.548096,60.4677734 L152.290283,60.043457 C152.318929,60.9887743 152.333252,61.6529929 152.333252,62.0361328 L152.333252,66 L151.011963,66 Z M158.493896,66 L161.388916,58.1259766 L162.973389,58.1259766 L165.825439,66 L164.332275,66 L163.553467,63.7763672 L160.798096,63.7763672 L160.013916,66 L158.493896,66 Z M161.16333,62.6914062 L163.182861,62.6914062 C162.538327,60.6253152 162.207113,59.5582686 162.189209,59.4902344 L161.16333,62.6914062 Z M166.609619,66 L166.609619,58.1313477 L168.328369,58.1313477 L170.707764,63.8139648 L173.103271,58.1313477 L174.800537,58.1313477 L174.800537,66 L173.457764,66 L173.457764,62.1113281 L173.500732,59.8823242 L173.302002,60.4731445 L171.287842,65.4628906 L170.041748,65.4628906 L168.070557,60.4462891 L167.871826,59.8554688 L167.920166,62.1328125 L167.920166,66 L166.609619,66 Z M176.497803,66 L176.497803,58.1313477 L181.267334,58.1313477 L181.208252,59.2861328 L177.953369,59.2861328 L177.953369,61.3164062 L181.047119,61.3164062 L181.047119,62.4711914 L177.953369,62.4711914 L177.953369,64.8398438 L181.326416,64.8398438 L181.278076,66 L176.497803,66 Z" id="PROPERTY-NAME" fill="#4A4A4A"></path>
        <path d="M306.032471,66 L303.169678,58.1313477 L304.668213,58.1313477 L306.333252,62.9921875 C306.397705,63.1604826 306.546304,63.6528279 306.779053,64.4692383 C306.793376,64.4119463 306.859619,64.1765157 306.977783,63.7629395 C307.095948,63.3493632 307.172933,63.0960291 307.20874,63.0029297 C307.251709,62.8811843 307.523842,62.0728428 308.025146,60.5778809 C308.526451,59.082919 308.800374,58.267416 308.846924,58.1313477 L310.329346,58.1313477 L307.50415,66 L306.032471,66 Z M309.706299,66 L312.601318,58.1259766 L314.185791,58.1259766 L317.037842,66 L315.544678,66 L314.765869,63.7763672 L312.010498,63.7763672 L311.226318,66 L309.706299,66 Z M312.375732,62.6914062 L314.395264,62.6914062 C313.750729,60.6253152 313.419515,59.5582686 313.401611,59.4902344 L312.375732,62.6914062 Z M317.822021,66 L317.822021,58.1313477 L319.277588,58.1313477 L319.277588,64.8398438 L322.570068,64.8398438 L322.5271,66 L317.822021,66 Z M326.646729,66.112793 C325.615473,66.112793 324.833092,65.8558782 324.299561,65.342041 C323.766029,64.8282038 323.499268,64.1040086 323.499268,63.1694336 L323.499268,58.1313477 L324.960205,58.1313477 L324.960205,63.0458984 C324.960205,63.7011752 325.093586,64.1791977 325.360352,64.4799805 C325.627117,64.7807632 326.064857,64.9311523 326.673584,64.9311523 C327.271569,64.9311523 327.704833,64.779868 327.973389,64.4772949 C328.241945,64.1747218 328.376221,63.6958041 328.376221,63.0405273 L328.376221,58.1313477 L329.831787,58.1313477 L329.831787,63.1801758 C329.831787,64.1075893 329.559654,64.8282038 329.015381,65.342041 C328.471107,65.8558782 327.681564,66.112793 326.646729,66.112793 Z M331.459229,66 L331.459229,58.1313477 L336.22876,58.1313477 L336.169678,59.2861328 L332.914795,59.2861328 L332.914795,61.3164062 L336.008545,61.3164062 L336.008545,62.4711914 L332.914795,62.4711914 L332.914795,64.8398438 L336.287842,64.8398438 L336.239502,66 L331.459229,66 Z" id="VALUE" fill="#4A4A4A"></path>
        <path d="M49.5441895,64.9257812 C50.3068886,64.9257812 50.882485,64.6778182 51.2709961,64.1818848 C51.6595072,63.6859513 51.8537598,62.9850306 51.8537598,62.0791016 C51.8537598,61.1624303 51.6595072,60.4516627 51.2709961,59.9467773 C50.882485,59.441892 50.3086789,59.1894531 49.5495605,59.1894531 C48.7868614,59.1894531 48.2094746,59.4427872 47.8173828,59.9494629 C47.425291,60.4561386 47.229248,61.1660111 47.229248,62.0791016 C47.229248,62.9814498 47.4243958,63.6814754 47.8146973,64.1791992 C48.2049987,64.6769231 48.7814903,64.9257812 49.5441895,64.9257812 Z M49.5388184,66.112793 C48.3535911,66.112793 47.4181349,65.7538285 46.7324219,65.0358887 C46.0467088,64.3179489 45.7038574,63.326992 45.7038574,62.0629883 C45.7038574,60.7918231 46.047604,59.799971 46.7351074,59.0874023 C47.4226109,58.3748337 48.3589622,58.0185547 49.5441895,58.0185547 C50.7294167,58.0185547 51.6639777,58.3757289 52.3479004,59.0900879 C53.0318231,59.8044469 53.3737793,60.7971942 53.3737793,62.0683594 C53.3737793,63.3252016 53.0300327,64.313473 52.3425293,65.0332031 C51.6550259,65.7529333 50.7204649,66.112793 49.5388184,66.112793 Z M54.7541504,66 L54.7541504,58.1313477 L57.2087402,58.1313477 C58.2507376,58.1313477 59.0277481,58.2835271 59.5397949,58.5878906 C60.0518418,58.8922541 60.3078613,59.3989222 60.3078613,60.1079102 C60.3078613,60.2224941 60.3006999,60.3352859 60.286377,60.4462891 C60.272054,60.5572922 60.2398277,60.6835117 60.1896973,60.8249512 C60.1395668,60.9663907 60.073324,61.0944005 59.9909668,61.2089844 C59.9086096,61.3235683 59.7940274,61.4354649 59.6472168,61.5446777 C59.5004062,61.6538905 59.3285329,61.738932 59.1315918,61.7998047 C59.6185734,61.9179693 59.9909655,62.1444482 60.2487793,62.479248 C60.5065931,62.8140479 60.635498,63.2267228 60.635498,63.7172852 C60.635498,64.4584998 60.3732123,65.0242494 59.8486328,65.4145508 C59.3240534,65.8048522 58.5980678,66 57.6706543,66 L54.7541504,66 Z M56.2097168,64.9472656 L57.4719238,64.9472656 C58.5891169,64.9472656 59.1477051,64.510421 59.1477051,63.6367188 C59.1477051,63.1962869 59.008058,62.8793955 58.7287598,62.6860352 C58.4494615,62.4926748 58.0179879,62.3959961 57.4343262,62.3959961 L56.2097168,62.3959961 L56.2097168,64.9472656 Z M56.2097168,61.3808594 L57.4558105,61.3808594 C58.4190315,61.3808594 58.9006348,61.0138383 58.9006348,60.2797852 C58.9006348,59.8679992 58.7618829,59.5851245 58.484375,59.4311523 C58.2068671,59.2771802 57.7655466,59.2001953 57.1604004,59.2001953 L56.2097168,59.2001953 L56.2097168,61.3808594 Z M60.6730957,67.7241211 L60.6140137,66.5800781 C60.7858895,66.6087241 60.9738759,66.6230469 61.1779785,66.6230469 C61.5754414,66.6230469 61.8439934,66.5209971 61.9836426,66.3168945 C62.1232917,66.1127919 62.1931152,65.7762068 62.1931152,65.3071289 L62.1931152,58.1098633 L63.6540527,58.1098633 L63.6540527,65.2104492 C63.6540527,65.6616233 63.6137699,66.042072 63.5332031,66.3518066 C63.4526363,66.6615413 63.31657,66.9247222 63.125,67.1413574 C62.93343,67.3579926 62.6792008,67.5164383 62.3623047,67.6166992 C62.0454086,67.7169601 61.6524275,67.7670898 61.1833496,67.7670898 C60.9864085,67.7670898 60.8163256,67.7527671 60.6730957,67.7241211 Z M65.3137207,66 L65.3137207,58.1313477 L70.083252,58.1313477 L70.0241699,59.2861328 L66.7692871,59.2861328 L66.7692871,61.3164062 L69.8630371,61.3164062 L69.8630371,62.4711914 L66.7692871,62.4711914 L66.7692871,64.8398438 L70.142334,64.8398438 L70.0939941,66 L65.3137207,66 Z M74.9333496,66.112793 C73.7839298,66.112793 72.8726433,65.7511429 72.1994629,65.027832 C71.5262824,64.3045211 71.1896973,63.3055077 71.1896973,62.0307617 C71.1896973,60.8204692 71.5415004,59.8492061 72.2451172,59.1169434 C72.948734,58.3846806 73.8698674,58.0185547 75.0085449,58.0185547 C75.9287969,58.0185547 76.7075977,58.2316059 77.3449707,58.6577148 L76.8884277,59.7587891 C76.27612,59.3828106 75.6602407,59.1948242 75.0407715,59.1948242 C74.3174606,59.1948242 73.7454448,59.4553197 73.324707,59.9763184 C72.9039693,60.4973171 72.6936035,61.1964474 72.6936035,62.0737305 C72.6936035,62.9832402 72.8968079,63.6868465 73.3032227,64.1845703 C73.7096374,64.6822942 74.2888146,64.9311523 75.0407715,64.9311523 C75.6996289,64.9311523 76.3531055,64.7664404 77.0012207,64.4370117 L77.1945801,65.5756836 C76.5930146,65.9337583 75.8392786,66.112793 74.9333496,66.112793 Z M80.0090332,66 L80.0090332,59.296875 L77.7155762,59.296875 L77.7155762,58.1313477 L83.7526855,58.1313477 L83.7526855,59.296875 L81.4699707,59.296875 L81.4699707,66 L80.0090332,66 Z" id="OBJECT" fill="#4A4A4A"></path>
        <path d="M205.916016,51 L208.811035,43.1259766 L210.395508,43.1259766 L213.247559,51 L211.754395,51 L210.975586,48.7763672 L208.220215,48.7763672 L207.436035,51 L205.916016,51 Z M208.585449,47.6914062 L210.60498,47.6914062 C209.960446,45.6253152 209.629232,44.5582686 209.611328,44.4902344 L208.585449,47.6914062 Z M216.287598,51.1074219 C215.3387,51.1074219 214.488285,50.8889996 213.736328,50.4521484 L214.09082,49.2973633 C214.427411,49.4835621 214.793536,49.6339513 215.189209,49.7485352 C215.584882,49.8631191 215.970701,49.9204102 216.34668,49.9204102 C216.808596,49.9204102 217.157714,49.8210459 217.394043,49.6223145 C217.630372,49.423583 217.748535,49.1380227 217.748535,48.765625 C217.748535,48.2714819 217.419111,47.9295257 216.760254,47.7397461 C216.713704,47.7254231 216.583009,47.6869307 216.368164,47.6242676 C216.153319,47.5616045 215.951905,47.5007327 215.763916,47.4416504 C215.575927,47.3825681 215.440756,47.3369142 215.358398,47.3046875 C214.302078,46.9322898 213.773926,46.2376353 213.773926,45.2207031 C213.773926,44.5081345 214.02726,43.958498 214.533936,43.5717773 C215.040611,43.1850567 215.712886,42.9916992 216.550781,42.9916992 C217.499679,42.9916992 218.317868,43.186847 219.005371,43.5771484 L218.564941,44.640625 C217.863115,44.3255193 217.211429,44.1679688 216.609863,44.1679688 C216.176593,44.1679688 215.849855,44.2440585 215.629639,44.3962402 C215.409423,44.548422 215.292155,44.801756 215.277832,45.15625 C215.277832,45.5931011 215.494464,45.8777663 215.927734,46.0102539 C216.013672,46.0424806 216.224933,46.1123042 216.561523,46.2197266 C216.898114,46.327149 217.116536,46.3969725 217.216797,46.4291992 C217.936527,46.6655285 218.451252,46.9591454 218.760986,47.3100586 C219.070721,47.6609718 219.225586,48.1497365 219.225586,48.7763672 C219.225586,49.5247433 218.960615,50.1003398 218.430664,50.5031738 C217.900713,50.9060079 217.186365,51.1074219 216.287598,51.1074219 Z M222.673828,51.1074219 C221.72493,51.1074219 220.874515,50.8889996 220.122559,50.4521484 L220.477051,49.2973633 C220.813641,49.4835621 221.179767,49.6339513 221.575439,49.7485352 C221.971112,49.8631191 222.356932,49.9204102 222.73291,49.9204102 C223.194827,49.9204102 223.543944,49.8210459 223.780273,49.6223145 C224.016603,49.423583 224.134766,49.1380227 224.134766,48.765625 C224.134766,48.2714819 223.805342,47.9295257 223.146484,47.7397461 C223.099935,47.7254231 222.969239,47.6869307 222.754395,47.6242676 C222.53955,47.5616045 222.338136,47.5007327 222.150146,47.4416504 C221.962157,47.3825681 221.826986,47.3369142 221.744629,47.3046875 C220.688309,46.9322898 220.160156,46.2376353 220.160156,45.2207031 C220.160156,44.5081345 220.41349,43.958498 220.920166,43.5717773 C221.426842,43.1850567 222.099117,42.9916992 222.937012,42.9916992 C223.88591,42.9916992 224.704098,43.186847 225.391602,43.5771484 L224.951172,44.640625 C224.249345,44.3255193 223.597659,44.1679688 222.996094,44.1679688 C222.562823,44.1679688 222.236085,44.2440585 222.015869,44.3962402 C221.795653,44.548422 221.678385,44.801756 221.664062,45.15625 C221.664062,45.5931011 221.880694,45.8777663 222.313965,46.0102539 C222.399903,46.0424806 222.611164,46.1123042 222.947754,46.2197266 C223.284344,46.327149 223.502766,46.3969725 223.603027,46.4291992 C224.322758,46.6655285 224.837482,46.9591454 225.147217,47.3100586 C225.456951,47.6609718 225.611816,48.1497365 225.611816,48.7763672 C225.611816,49.5247433 225.346845,50.1003398 224.816895,50.5031738 C224.286944,50.9060079 223.572596,51.1074219 222.673828,51.1074219 Z M226.890137,51 L226.890137,43.1313477 L228.345703,43.1313477 L228.345703,51 L226.890137,51 Z M233.598633,51.112793 C232.399083,51.112793 231.461836,50.7511429 230.786865,50.027832 C230.111894,49.3045211 229.774414,48.3144594 229.774414,47.0576172 C229.774414,46.2591106 229.931965,45.5563995 230.24707,44.9494629 C230.562176,44.3425263 231.025876,43.8689796 231.638184,43.5288086 C232.250491,43.1886376 232.973791,43.0185547 233.808105,43.0185547 C234.764165,43.0185547 235.584144,43.2244446 236.268066,43.6362305 L235.79541,44.7211914 C235.143714,44.3702782 234.490238,44.1948242 233.834961,44.1948242 C233.040035,44.1948242 232.415204,44.4526341 231.960449,44.9682617 C231.505694,45.4838893 231.27832,46.1857052 231.27832,47.0737305 C231.27832,47.9545942 231.480629,48.6510391 231.885254,49.1630859 C232.289878,49.6751328 232.882483,49.9311523 233.663086,49.9311523 C234.164391,49.9311523 234.619139,49.8523771 235.027344,49.6948242 L235.027344,47.8686523 L233.378418,47.8686523 L233.38916,46.7246094 L236.396973,46.7246094 L236.396973,50.5219727 C235.909991,50.7224945 235.448977,50.8710933 235.013916,50.9677734 C234.578855,51.0644536 234.107099,51.112793 233.598633,51.112793 Z M237.959961,51 L237.959961,43.1313477 L239.506836,43.1313477 C239.786134,43.5681988 240.353674,44.4490494 241.209473,45.7739258 C242.065271,47.0988022 242.586262,47.9044582 242.772461,48.190918 C242.826172,48.2732752 242.918375,48.412027 243.049072,48.6071777 C243.17977,48.8023284 243.271972,48.9410803 243.325684,49.0234375 C243.300618,47.7952413 243.288086,47.1578778 243.288086,47.1113281 L243.288086,43.1313477 L244.614746,43.1313477 L244.614746,51 L243.046387,51 L239.496094,45.4677734 L239.238281,45.043457 C239.266927,45.9887743 239.28125,46.6529929 239.28125,47.0361328 L239.28125,51 L237.959961,51 Z M246.306641,51 L246.306641,43.1313477 L248.025391,43.1313477 L250.404785,48.8139648 L252.800293,43.1313477 L254.497559,43.1313477 L254.497559,51 L253.154785,51 L253.154785,47.1113281 L253.197754,44.8823242 L252.999023,45.4731445 L250.984863,50.4628906 L249.73877,50.4628906 L247.767578,45.4462891 L247.568848,44.8554688 L247.617188,47.1328125 L247.617188,51 L246.306641,51 Z M256.194824,51 L256.194824,43.1313477 L260.964355,43.1313477 L260.905273,44.2861328 L257.650391,44.2861328 L257.650391,46.3164062 L260.744141,46.3164062 L260.744141,47.4711914 L257.650391,47.4711914 L257.650391,49.8398438 L261.023438,49.8398438 L260.975098,51 L256.194824,51 Z M262.382324,51 L262.382324,43.1313477 L263.929199,43.1313477 C264.208497,43.5681988 264.776037,44.4490494 265.631836,45.7739258 C266.487634,47.0988022 267.008625,47.9044582 267.194824,48.190918 C267.248535,48.2732752 267.340738,48.412027 267.471436,48.6071777 C267.602133,48.8023284 267.694336,48.9410803 267.748047,49.0234375 C267.722982,47.7952413 267.710449,47.1578778 267.710449,47.1113281 L267.710449,43.1313477 L269.037109,43.1313477 L269.037109,51 L267.46875,51 L263.918457,45.4677734 L263.660645,45.043457 C263.689291,45.9887743 263.703613,46.6529929 263.703613,47.0361328 L263.703613,51 L262.382324,51 Z M272.249023,51 L272.249023,44.296875 L269.955566,44.296875 L269.955566,43.1313477 L275.992676,43.1313477 L275.992676,44.296875 L273.709961,44.296875 L273.709961,51 L272.249023,51 Z M216.22583,64.9257812 C216.988529,64.9257812 217.564126,64.6778182 217.952637,64.1818848 C218.341148,63.6859513 218.5354,62.9850306 218.5354,62.0791016 C218.5354,61.1624303 218.341148,60.4516627 217.952637,59.9467773 C217.564126,59.441892 216.99032,59.1894531 216.231201,59.1894531 C215.468502,59.1894531 214.891115,59.4427872 214.499023,59.9494629 C214.106932,60.4561386 213.910889,61.1660111 213.910889,62.0791016 C213.910889,62.9814498 214.106036,63.6814754 214.496338,64.1791992 C214.886639,64.6769231 215.463131,64.9257812 216.22583,64.9257812 Z M216.220459,66.112793 C215.035232,66.112793 214.099776,65.7538285 213.414062,65.0358887 C212.728349,64.3179489 212.385498,63.326992 212.385498,62.0629883 C212.385498,60.7918231 212.729245,59.799971 213.416748,59.0874023 C214.104251,58.3748337 215.040603,58.0185547 216.22583,58.0185547 C217.411057,58.0185547 218.345618,58.3757289 219.029541,59.0900879 C219.713464,59.8044469 220.05542,60.7971942 220.05542,62.0683594 C220.05542,63.3252016 219.711673,64.313473 219.02417,65.0332031 C218.336666,65.7529333 217.402106,66.112793 216.220459,66.112793 Z M221.398193,66 L221.398193,58.1098633 L224.019287,58.1098633 C224.638756,58.1098633 225.168699,58.1895337 225.609131,58.348877 C226.049563,58.5082202 226.397785,58.7669253 226.653809,59.125 C226.909832,59.4830747 227.037842,59.9324517 227.037842,60.4731445 C227.037842,60.849123 226.989502,61.1830226 226.892822,61.4748535 C226.796142,61.7666844 226.636801,62.0316557 226.414795,62.2697754 C226.192789,62.5078951 225.880373,62.6914056 225.477539,62.8203125 C225.074705,62.9492194 224.588626,63.0136719 224.019287,63.0136719 C223.532306,63.0136719 223.136639,62.9993491 222.832275,62.9707031 L222.832275,66 L221.398193,66 Z M223.863525,61.9609375 C224.160727,61.9609375 224.419432,61.932292 224.639648,61.875 C224.859864,61.817708 225.031738,61.7443038 225.155273,61.6547852 C225.278809,61.5652665 225.377278,61.454265 225.450684,61.3217773 C225.524089,61.1892897 225.572428,61.0612799 225.595703,60.9377441 C225.618978,60.8142084 225.630615,60.6754565 225.630615,60.5214844 C225.630615,60.088214 225.490968,59.7587902 225.21167,59.5332031 C224.932372,59.3076161 224.538495,59.1948242 224.030029,59.1948242 L222.832275,59.1948242 L222.832275,61.9501953 C222.875244,61.9573568 223.218991,61.9609375 223.863525,61.9609375 Z M228.122803,66 L228.122803,58.1313477 L232.892334,58.1313477 L232.833252,59.2861328 L229.578369,59.2861328 L229.578369,61.3164062 L232.672119,61.3164062 L232.672119,62.4711914 L229.578369,62.4711914 L229.578369,64.8398438 L232.951416,64.8398438 L232.903076,66 L228.122803,66 Z M234.272705,66 L234.272705,58.1098633 L237.189209,58.1098633 C237.586672,58.1098633 237.931314,58.1277667 238.223145,58.1635742 C238.514975,58.1993817 238.792479,58.2647293 239.055664,58.3596191 C239.318849,58.4545089 239.5319,58.5825187 239.694824,58.7436523 C239.857748,58.904786 239.986653,59.1151517 240.081543,59.3747559 C240.176433,59.63436 240.223877,59.9414045 240.223877,60.2958984 C240.223877,61.3414766 239.749435,62.0289697 238.800537,62.3583984 C238.993897,62.576824 239.233804,62.9814424 239.520264,63.5722656 L240.691162,66 L239.101318,66 L238.182861,63.9428711 C237.835529,63.2052372 237.620687,62.7683926 237.53833,62.6323242 C237.477457,62.6287435 237.275148,62.6269531 236.931396,62.6269531 L235.712158,62.6162109 L235.712158,66 L234.272705,66 Z M237.318115,61.5742188 C237.876712,61.5742188 238.277749,61.4748545 238.52124,61.276123 C238.764731,61.0773916 238.886475,60.7578147 238.886475,60.3173828 C238.886475,59.9306621 238.762941,59.645997 238.515869,59.4633789 C238.268798,59.2807608 237.891034,59.1894531 237.382568,59.1894531 L235.712158,59.1894531 L235.712158,61.5688477 C235.765869,61.5688477 236.032631,61.5697428 236.512451,61.5715332 C236.992271,61.5733236 237.260823,61.5742188 237.318115,61.5742188 Z M240.932861,66 L243.827881,58.1259766 L245.412354,58.1259766 L248.264404,66 L246.77124,66 L245.992432,63.7763672 L243.237061,63.7763672 L242.452881,66 L240.932861,66 Z M243.602295,62.6914062 L245.621826,62.6914062 C244.977292,60.6253152 244.646078,59.5582686 244.628174,59.4902344 L243.602295,62.6914062 Z M250.138916,66 L250.138916,59.296875 L247.845459,59.296875 L247.845459,58.1313477 L253.882568,58.1313477 L253.882568,59.296875 L251.599854,59.296875 L251.599854,66 L250.138916,66 Z M258.297607,64.9257812 C259.060307,64.9257812 259.635903,64.6778182 260.024414,64.1818848 C260.412925,63.6859513 260.607178,62.9850306 260.607178,62.0791016 C260.607178,61.1624303 260.412925,60.4516627 260.024414,59.9467773 C259.635903,59.441892 259.062097,59.1894531 258.302979,59.1894531 C257.540279,59.1894531 256.962893,59.4427872 256.570801,59.9494629 C256.178709,60.4561386 255.982666,61.1660111 255.982666,62.0791016 C255.982666,62.9814498 256.177814,63.6814754 256.568115,64.1791992 C256.958417,64.6769231 257.534908,64.9257812 258.297607,64.9257812 Z M258.292236,66.112793 C257.107009,66.112793 256.171553,65.7538285 255.48584,65.0358887 C254.800127,64.3179489 254.457275,63.326992 254.457275,62.0629883 C254.457275,60.7918231 254.801022,59.799971 255.488525,59.0874023 C256.176029,58.3748337 257.11238,58.0185547 258.297607,58.0185547 C259.482835,58.0185547 260.417396,58.3757289 261.101318,59.0900879 C261.785241,59.8044469 262.127197,60.7971942 262.127197,62.0683594 C262.127197,63.3252016 261.783451,64.313473 261.095947,65.0332031 C260.408444,65.7529333 259.473883,66.112793 258.292236,66.112793 Z M263.469971,66 L263.469971,58.1098633 L266.386475,58.1098633 C266.783938,58.1098633 267.128579,58.1277667 267.42041,58.1635742 C267.712241,58.1993817 267.989745,58.2647293 268.25293,58.3596191 C268.516115,58.4545089 268.729166,58.5825187 268.89209,58.7436523 C269.055014,58.904786 269.183919,59.1151517 269.278809,59.3747559 C269.373698,59.63436 269.421143,59.9414045 269.421143,60.2958984 C269.421143,61.3414766 268.946701,62.0289697 267.997803,62.3583984 C268.191163,62.576824 268.43107,62.9814424 268.717529,63.5722656 L269.888428,66 L268.298584,66 L267.380127,63.9428711 C267.032794,63.2052372 266.817953,62.7683926 266.735596,62.6323242 C266.674723,62.6287435 266.472414,62.6269531 266.128662,62.6269531 L264.909424,62.6162109 L264.909424,66 L263.469971,66 Z M266.515381,61.5742188 C267.073977,61.5742188 267.475015,61.4748545 267.718506,61.276123 C267.961997,61.0773916 268.08374,60.7578147 268.08374,60.3173828 C268.08374,59.9306621 267.960206,59.645997 267.713135,59.4633789 C267.466063,59.2807608 267.0883,59.1894531 266.579834,59.1894531 L264.909424,59.1894531 L264.909424,61.5688477 C264.963135,61.5688477 265.229897,61.5697428 265.709717,61.5715332 C266.189537,61.5733236 266.458089,61.5742188 266.515381,61.5742188 Z" id="ASSIGNMENT-OPERATOR" fill="#4A4A4A"></path>
        <g id="Group" transform="translate(166.500000, 83.500000) rotate(-360.000000) translate(-166.500000, -83.500000) translate(116.000000, 72.000000)" stroke="#4A4A4A" stroke-linecap="square">
            <path d="M100,12 L100,22.5" id="Line-4-Copy" transform="translate(100.000000, 17.250000) scale(-1, -1) translate(-100.000000, -17.250000) "></path>
            <path d="M1,12 L1,22.5" id="Line-4-Copy-2" transform="translate(1.000000, 17.250000) scale(-1, -1) translate(-1.000000, -17.250000) "></path>
            <path d="M1,11 L100.5,11" id="Line-5-Copy" transform="translate(50.750000, 11.000000) scale(-1, -1) translate(-50.750000, -11.000000) "></path>
            <path d="M51,0.5 L51,11" id="Line-6-Copy" transform="translate(51.000000, 5.750000) scale(-1, -1) translate(-51.000000, -5.750000) "></path>
        </g>
        <g id="Group-Copy-3" transform="translate(320.500000, 83.500000) rotate(-360.000000) translate(-320.500000, -83.500000) translate(255.000000, 72.000000)" stroke="#4A4A4A" stroke-linecap="square">
            <path d="M130,12 L130,22.5" id="Line-4-Copy" transform="translate(130.000000, 17.250000) scale(-1, -1) translate(-130.000000, -17.250000) "></path>
            <path d="M1,12 L1,22.5" id="Line-4-Copy-2" transform="translate(1.000000, 17.250000) scale(-1, -1) translate(-1.000000, -17.250000) "></path>
            <path d="M1,11 L130.5,11" id="Line-5-Copy" transform="translate(65.750000, 11.000000) scale(-1, -1) translate(-65.750000, -11.000000) "></path>
            <path d="M66,0.5 L66,11" id="Line-6-Copy" transform="translate(66.000000, 5.750000) scale(-1, -1) translate(-66.000000, -5.750000) "></path>
        </g>
        <g id="Group-Copy" transform="translate(66.500000, 83.500000) rotate(-360.000000) translate(-66.500000, -83.500000) translate(25.000000, 72.000000)" stroke="#4A4A4A" stroke-linecap="square">
            <path d="M82,12 L82,22.5" id="Line-4-Copy" transform="translate(82.000000, 17.250000) scale(-1, -1) translate(-82.000000, -17.250000) "></path>
            <path d="M1,12 L1,22.5" id="Line-4-Copy-2" transform="translate(1.000000, 17.250000) scale(-1, -1) translate(-1.000000, -17.250000) "></path>
            <path d="M0.5,11 L82.5,11" id="Line-5-Copy" transform="translate(41.500000, 11.000000) scale(-1, -1) translate(-41.500000, -11.000000) "></path>
            <path d="M41,0.5 L41,11" id="Line-6-Copy" transform="translate(41.000000, 5.750000) scale(-1, -1) translate(-41.000000, -5.750000) "></path>
        </g>
        <g id="Group-Copy-2" transform="translate(237.000000, 84.000000) rotate(-360.000000) translate(-237.000000, -84.000000) translate(225.000000, 73.000000)" stroke="#4A4A4A" stroke-linecap="square">
            <path d="M23,11 L23,21.5" id="Line-4-Copy" transform="translate(23.000000, 16.250000) scale(-1, -1) translate(-23.000000, -16.250000) "></path>
            <path d="M1,11 L1,21.5" id="Line-4-Copy-2" transform="translate(1.000000, 16.250000) scale(-1, -1) translate(-1.000000, -16.250000) "></path>
            <path d="M1,10 L23,10" id="Line-5-Copy" transform="translate(12.000000, 10.000000) scale(-1, -1) translate(-12.000000, -10.000000) "></path>
            <path d="M12,-1.13686838e-13 L12,10.5" id="Line-6-Copy" transform="translate(12.000000, 5.250000) scale(-1, -1) translate(-12.000000, -5.250000) "></path>
        </g>
    </g>
</svg>